<svg width="16" height="16" viewBox="0 0 16 16" fill="none" xmlns="http://www.w3.org/2000/svg">
<g id="home">
<path id="Vector" fill-rule="evenodd" clip-rule="evenodd" d="M7.43445 1.8344C7.58447 1.68442 7.78792 1.60017 8.00005 1.60017C8.21218 1.60017 8.41563 1.68442 8.56565 1.8344L14.1657 7.4344C14.2775 7.54628 14.3537 7.68881 14.3845 7.84397C14.4154 7.99914 14.3995 8.15996 14.339 8.30612C14.2785 8.45228 14.1759 8.57721 14.0444 8.66512C13.9129 8.75303 13.7583 8.79997 13.6 8.8H12.8V13.6C12.8 13.8122 12.7158 14.0157 12.5657 14.1657C12.4157 14.3157 12.2122 14.4 12 14.4H10.4001C10.1879 14.4 9.98439 14.3157 9.83436 14.1657C9.68434 14.0157 9.60005 13.8122 9.60005 13.6V11.2C9.60005 10.9878 9.51576 10.7843 9.36574 10.6343C9.21571 10.4843 9.01222 10.4 8.80005 10.4H7.20005C6.98788 10.4 6.78439 10.4843 6.63436 10.6343C6.48433 10.7843 6.40005 10.9878 6.40005 11.2V13.6C6.40005 13.8122 6.31576 14.0157 6.16573 14.1657C6.01571 14.3157 5.81222 14.4 5.60005 14.4H4.00005C3.78788 14.4 3.58439 14.3157 3.43436 14.1657C3.28433 14.0157 3.20005 13.8122 3.20005 13.6V8.8H2.40005C2.24185 8.79997 2.08721 8.75303 1.95568 8.66512C1.82415 8.57721 1.72164 8.45228 1.66111 8.30612C1.60057 8.15996 1.58473 7.99914 1.61558 7.84397C1.64644 7.68881 1.7226 7.54628 1.83445 7.4344L7.43445 1.8344Z" fill="#64748B"/>
</g>
</svg>
